<?xml version="1.0" encoding="UTF-8"?>
<!--Generator: Apple Native CoreSVG 175-->
<!DOCTYPE svg
PUBLIC "-//W3C//DTD SVG 1.1//EN"
       "http://www.w3.org/Graphics/SVG/1.1/DTD/svg11.dtd">
<svg version="1.1" xmlns="http://www.w3.org/2000/svg" xmlns:xlink="http://www.w3.org/1999/xlink" width="27.1067" height="27.126">
 <g>
  <rect height="27.126" opacity="0" width="27.1067" x="0" y="0"/>
  <path d="M0.446565 26.6795Q0.754182 26.97 1.14725 27.0725Q1.54032 27.1751 1.93338 27.0725Q2.32645 26.97 2.61698 26.6795L13.5545 15.742L24.492 26.6795Q24.7825 26.97 25.1756 27.0725Q25.5686 27.1751 25.9702 27.0811Q26.3719 26.9871 26.6624 26.6795Q26.9529 26.3889 27.0469 25.9959Q27.1409 25.6028 27.0469 25.2097Q26.9529 24.8167 26.6624 24.5262L15.7249 13.5716L26.6624 2.63407Q26.9529 2.34354 27.0555 1.95047Q27.158 1.5574 27.0555 1.16434Q26.9529 0.771272 26.6624 0.480745Q26.3548 0.173128 25.9617 0.0791334Q25.5686-0.0148607 25.1756 0.0791334Q24.7825 0.173128 24.492 0.480745L13.5545 11.4182L2.61698 0.480745Q2.32645 0.173128 1.92484 0.0791334Q1.52323-0.0148607 1.13016 0.0791334Q0.737092 0.173128 0.446565 0.480745Q0.156038 0.771272 0.0620436 1.16434Q-0.0319506 1.5574 0.0620436 1.95047Q0.156038 2.34354 0.446565 2.63407L11.3841 13.5716L0.446565 24.5262Q0.156038 24.8167 0.0534986 25.2097Q-0.0490404 25.6028 0.0449537 25.9959Q0.138948 26.3889 0.446565 26.6795Z" fill="rgba(255,255,255,0.85)"/>
 </g>
</svg>
