<?xml version="1.0" encoding="UTF-8"?>
<!--Generator: Apple Native CoreSVG 175-->
<!DOCTYPE svg
PUBLIC "-//W3C//DTD SVG 1.1//EN"
       "http://www.w3.org/Graphics/SVG/1.1/DTD/svg11.dtd">
<svg version="1.1" xmlns="http://www.w3.org/2000/svg" xmlns:xlink="http://www.w3.org/1999/xlink" width="34.8633" height="34.8804">
 <g>
  <rect height="34.8804" opacity="0" width="34.8633" x="0" y="0"/>
  <path d="M17.4316 34.8633Q21.0034 34.8633 24.1565 33.4961Q27.3096 32.1289 29.7192 29.7192Q32.1289 27.3096 33.4961 24.1565Q34.8633 21.0034 34.8633 17.4316Q34.8633 13.8599 33.4961 10.7068Q32.1289 7.55371 29.7192 5.14404Q27.3096 2.73438 24.1479 1.36719Q20.9863 0 17.4146 0Q13.8428 0 10.6897 1.36719Q7.53662 2.73438 5.1355 5.14404Q2.73438 7.55371 1.36719 10.7068Q0 13.8599 0 17.4316Q0 21.0034 1.36719 24.1565Q2.73438 27.3096 5.14404 29.7192Q7.55371 32.1289 10.7068 33.4961Q13.8599 34.8633 17.4316 34.8633ZM17.4316 31.958Q14.4067 31.958 11.7749 30.8301Q9.14307 29.7021 7.1521 27.7112Q5.16113 25.7202 4.04175 23.0884Q2.92236 20.4565 2.92236 17.4316Q2.92236 14.4067 4.04175 11.7749Q5.16113 9.14307 7.14355 7.14355Q9.12598 5.14404 11.7578 4.02466Q14.3896 2.90527 17.4146 2.90527Q20.4395 2.90527 23.0713 4.02466Q25.7031 5.14404 27.7026 7.14355Q29.7021 9.14307 30.8301 11.7749Q31.958 14.4067 31.958 17.4316Q31.958 20.4565 30.8386 23.0884Q29.7192 25.7202 27.7283 27.7112Q25.7373 29.7021 23.0969 30.8301Q20.4565 31.958 17.4316 31.958ZM9.60449 26.0791L25.2246 26.0791Q25.7373 26.0791 25.9851 25.78Q26.2329 25.481 26.2329 25.0024Q26.2329 24.3018 25.6946 23.1824Q25.1562 22.063 24.071 20.9436Q22.9858 19.8242 21.3281 19.0552Q19.6704 18.2861 17.4146 18.2861Q15.1587 18.2861 13.501 19.0552Q11.8433 19.8242 10.7581 20.9436Q9.67285 22.063 9.13452 23.1824Q8.59619 24.3018 8.59619 25.0024Q8.59619 25.481 8.84399 25.78Q9.0918 26.0791 9.60449 26.0791ZM17.4146 16.8848Q18.6279 16.9019 19.6277 16.2695Q20.6274 15.6372 21.217 14.552Q21.8066 13.4668 21.8066 12.0996Q21.8066 10.8179 21.217 9.74976Q20.6274 8.68164 19.6277 8.04077Q18.6279 7.3999 17.4146 7.3999Q16.2012 7.3999 15.2014 8.04077Q14.2017 8.68164 13.6121 9.74976Q13.0225 10.8179 13.0225 12.0996Q13.0225 13.4668 13.6121 14.5435Q14.2017 15.6201 15.2014 16.2524Q16.2012 16.8848 17.4146 16.8848Z" fill="rgba(255,255,255,0.85)"/>
 </g>
</svg>
